# File created by Blade
# Date/Time:  Thu Sep 25 17:14:50 2014
# Frame Rate: 120.000 fps
#------------------------------------------------------
:FULLY-SPECIFIED
:DEGREES
546
root 14.345244 36.281595 -0.356651 185.252237 -11.525765 -48.568846
Spine -12.179621 -6.658363 -27.354259
Head -84.467331 -2.665566 -5.275545
LeftShoulder -10.555317 3.698838 45.037815
LeftArm 106.221882 -41.570133 -101.137398
LeftForeArm -31.275000 -0.000000 36.300768
LeftHand -46.476825 -0.000000 115.395889
LeftHandThumb1 -26.253704 0.000000 33.147579
RightShoulder -88.751439 64.054847 -155.133714
RightArm 2.973970 -0.901344 39.786698
RightForeArm -51.015803 -0.000000 56.015859
RightHand -7.620153 -0.000000 -27.853571
RightHandThumb1 -24.326973 -0.000000 -32.862282
LeftUpLeg -30.943943 55.774544 68.272139
LeftLeg 3.380305 -0.000000 -0.000000
LeftFoot -4.683253 38.859735 -14.367844
LeftToeBase 2.547444 -0.000000 -0.000000
RightUpLeg 9.510044 -26.915070 -39.296972
RightLeg 10.325697 -0.000000 -0.000000
RightFoot 33.964817 -5.580239 -8.820836
RightToeBase 17.122296 -0.000000 -0.000000
547
root 13.882567 36.407283 -0.223969 185.609977 -9.960686 -47.555397
Spine -13.013470 -7.379944 -27.532806
Head -85.575144 -2.674108 -5.013059
LeftShoulder -10.858795 2.562455 44.558456
LeftArm 106.515716 -41.612449 -100.449178
LeftForeArm -30.218863 -0.000000 36.551600
LeftHand -44.613581 -0.000000 114.620643
LeftHandThumb1 -26.253704 0.000000 33.147579
RightShoulder -90.908769 63.620008 -157.252343
RightArm 2.509529 -1.852243 40.048921
RightForeArm -51.607211 0.000000 55.133096
RightHand -7.430307 -0.000000 -28.431897
RightHandThumb1 -24.326973 -0.000000 -32.862282
LeftUpLeg -27.054275 53.560363 70.462595
LeftLeg 5.679706 -0.000000 -0.000000
LeftFoot -2.397463 37.755056 -12.925074
LeftToeBase 3.391605 -0.000000 -0.000000
RightUpLeg 9.263528 -27.813129 -42.330571
RightLeg 9.735069 -0.000000 -0.000000
RightFoot 35.999246 -4.098271 -11.101313
RightToeBase 16.962036 -0.000000 -0.000000
548
root 13.411092 36.509145 -0.063950 186.102056 -8.342848 -46.521686
Spine -14.003380 -7.881153 -27.562619
Head -86.598143 -3.034887 -4.723672
LeftShoulder -11.013841 1.538483 43.693102
LeftArm 107.157715 -41.734190 -99.591574
LeftForeArm -28.940051 -0.000000 36.619687
LeftHand -43.588514 -0.000000 114.068978
LeftHandThumb1 -26.253704 0.000000 33.147579
RightShoulder -93.986807 62.986267 -160.353811
RightArm 1.926344 -3.194817 40.573195
RightForeArm -52.023436 -0.000000 53.982834
RightHand -7.974160 -0.000000 -29.087444
RightHandThumb1 -24.326973 -0.000000 -32.862282
LeftUpLeg -23.564052 50.859308 71.933605
LeftLeg 7.479078 -0.000000 -0.000000
LeftFoot -0.463857 36.865610 -12.237742
LeftToeBase 5.687398 -0.000000 -0.000000
RightUpLeg 8.400755 -27.810628 -44.711209
RightLeg 9.541620 -0.000000 -0.000000
RightFoot 38.217698 -1.379317 -13.437997
RightToeBase 16.716177 -0.000000 -0.000000
549
root 12.965305 36.586979 0.116264 186.611488 -6.725017 -45.570919
Spine -14.953067 -8.241995 -27.611874
Head -87.468486 -3.342216 -4.636240
LeftShoulder -11.345349 6.652655 41.873105
LeftArm 115.764775 -40.378396 -104.335375
LeftForeArm -27.593641 -0.000000 36.571924
LeftHand -43.076946 0.000000 113.655351
LeftHandThumb1 -26.253704 0.000000 33.147579
RightShoulder -99.344478 62.141263 -165.931571
RightArm 0.836104 -5.248123 41.261749
RightForeArm -51.702735 -0.000000 51.894682
RightHand -8.132510 -0.000000 -30.876463
RightHandThumb1 -24.326973 -0.000000 -32.862282
LeftUpLeg -20.470636 47.430988 72.864762
LeftLeg 9.148548 -0.000000 -0.000000
LeftFoot 1.780539 36.436584 -12.204788
LeftToeBase 5.988738 -0.000000 -0.000000
RightUpLeg 7.147286 -26.914178 -46.807866
RightLeg 9.614651 -0.000000 -0.000000
RightFoot 40.269984 -0.153243 -15.035683
RightToeBase 16.474094 -0.000000 -0.000000
550
root 12.518363 36.653431 0.281679 186.977464 -4.952092 -44.378917
Spine -15.840099 -8.247189 -27.385265
Head -88.347421 -3.493101 -4.708498
LeftShoulder -11.798403 -2.985764 43.344505
LeftArm 104.188741 -41.582637 -96.254400
LeftForeArm -26.149311 0.000000 36.957564
LeftHand -42.649048 0.000000 113.168194
LeftHandThumb1 -26.253704 0.000000 33.147579
RightShoulder -102.882887 61.352033 -169.753149
RightArm -0.289245 -6.650105 41.662961
RightForeArm -50.562230 -0.000000 49.939495
RightHand -8.409783 -0.000000 -32.314882
RightHandThumb1 -24.326973 -0.000000 -32.862282
LeftUpLeg -17.463881 43.807420 73.508511
LeftLeg 10.288773 -0.000000 -0.000000
LeftFoot 4.437135 36.201591 -12.878485
LeftToeBase 6.345344 -0.000000 -0.000000
RightUpLeg 5.713006 -25.834188 -48.439391
RightLeg 9.678236 -0.000000 -0.000000
RightFoot 42.577126 0.250352 -16.016928
RightToeBase 16.472949 -0.000000 -0.000000
551
root 12.077243 36.697752 0.440849 187.193001 -3.215894 -43.235546
Spine -16.472267 -7.994922 -27.242378
Head -89.223102 -3.923873 -4.582143
LeftShoulder -14.193849 -26.675650 49.949668
LeftArm 72.169735 -39.430411 -76.591507
LeftForeArm -24.817155 -0.000000 38.305930
LeftHand -42.870435 -0.000000 112.504719
LeftHandThumb1 -26.253704 0.000000 33.147579
RightShoulder -104.116663 60.801885 -171.132111
RightArm -0.935819 -7.282613 41.913050
RightForeArm -48.560401 -0.000000 47.750494
RightHand -8.247960 -0.000000 -34.738336
RightHandThumb1 -24.326973 -0.000000 -32.862282
LeftUpLeg -14.833344 39.941846 73.349540
LeftLeg 10.974581 -0.000000 -0.000000
LeftFoot 6.894101 36.199554 -14.517806
LeftToeBase 5.392502 -0.000000 -0.000000
RightUpLeg 4.296327 -24.661326 -50.066485
RightLeg 9.949162 -0.000000 -0.000000
RightFoot 44.634264 0.259095 -16.859182
RightToeBase 16.599602 -0.000000 -0.000000
552
root 11.647932 36.723274 0.581176 187.168579 -1.422106 -42.060772
Spine -16.893394 -7.520774 -26.990171
Head -89.967090 -4.264562 -4.547144
LeftShoulder -20.559154 -47.367888 59.621097
LeftArm 46.669488 -31.501003 -63.123486
LeftForeArm -23.394974 -0.000000 39.515410
LeftHand -43.160785 -0.000000 111.936785
LeftHandThumb1 -26.253704 0.000000 33.147579
RightShoulder -105.199704 60.373600 -172.407093
RightArm -1.781740 -7.783908 42.252640
RightForeArm -47.414639 -0.000000 45.718175
RightHand -6.559482 0.000000 -39.566452
RightHandThumb1 -24.326973 -0.000000 -32.862282
LeftUpLeg -12.315250 35.806616 72.679135
LeftLeg 11.220296 -0.000000 -0.000000
LeftFoot 11.519422 36.352118 -14.381130
LeftToeBase -2.532405 -0.000000 0.000000
RightUpLeg 2.883826 -23.391477 -51.623437
RightLeg 10.449926 -0.000000 -0.000000
RightFoot 46.713484 0.131602 -17.319742
RightToeBase 16.819573 -0.000000 -0.000000
553
root 11.187965 36.734105 0.712883 187.075515 0.336555 -40.754226
Spine -17.263080 -7.131600 -26.679807
Head -90.687877 -4.417727 -4.302311
LeftShoulder -31.233028 -60.092859 72.445036
LeftArm 32.130031 -23.735666 -57.335402
LeftForeArm -22.075939 -0.000000 40.318654
LeftHand -43.487199 -0.000000 111.821636
LeftHandThumb1 -26.253704 0.000000 33.147579
RightShoulder -106.372072 60.164461 -173.571395
RightArm -2.856263 -8.192755 42.624939
RightForeArm -47.563806 -0.000000 44.836451
RightHand -6.341189 -0.000000 -45.951033
RightHandThumb1 -24.326973 -0.000000 -32.862282
LeftUpLeg -10.173301 31.646347 71.538929
LeftLeg 11.467270 -0.000000 -0.000000
LeftFoot 11.896683 36.470605 -13.491167
LeftToeBase 11.010218 -0.000000 -0.000000
RightUpLeg 1.455515 -22.210025 -52.787103
RightLeg 10.944093 -0.000000 -0.000000
RightFoot 47.506126 1.395997 -17.894843
RightToeBase 14.932718 -0.000000 -0.000000
554
root 10.754704 36.722995 0.827745 186.953701 2.186151 -39.337636
Spine -17.696434 -6.518178 -26.029062
Head -91.333198 -4.597307 -4.347099
LeftShoulder -50.385818 -68.730500 93.439149
LeftArm 20.837610 -16.510471 -54.563658
LeftForeArm -20.348716 -0.000000 41.280678
LeftHand -44.520330 -0.000000 111.722684
LeftHandThumb1 -26.253704 0.000000 33.147579
RightShoulder -105.606118 60.438564 -172.447040
RightArm -3.015662 -7.632880 42.817030
RightForeArm -47.662048 0.000000 44.921535
RightHand -6.503594 0.000000 -50.682404
RightHandThumb1 -24.326973 -0.000000 -32.862282
LeftUpLeg -7.700520 28.084013 70.182651
LeftLeg 10.633710 -0.000000 -0.000000
LeftFoot 14.650549 36.848701 -13.128377
LeftToeBase 14.866377 -0.000000 -0.000000
RightUpLeg -0.114284 -21.485387 -53.863795
RightLeg 11.554950 -0.000000 -0.000000
RightFoot 46.047243 -1.046437 -15.008816
RightToeBase 19.702631 -0.000000 -0.000000
555
root 10.325820 36.722768 0.947857 186.888512 4.078443 -37.750621
Spine -18.211622 -5.890753 -25.067548
Head -91.675549 -5.007295 -4.724752
LeftShoulder -77.171426 -72.170084 122.003970
LeftArm 11.749280 -10.547103 -53.431194
LeftForeArm -18.464486 0.000000 42.262282
LeftHand -45.483331 -0.000000 111.858592
LeftHandThumb1 -26.253704 0.000000 33.147579
RightShoulder -104.918297 60.916716 -171.318875
RightArm -3.020044 -6.730412 42.988757
RightForeArm -47.202361 -0.000000 45.287915
RightHand -6.446178 -0.000000 -55.317685
RightHandThumb1 -24.326973 -0.000000 -32.862282
LeftUpLeg -5.254365 25.176042 68.707062
LeftLeg 9.504399 -0.000000 -0.000000
LeftFoot 17.659525 37.120214 -12.387712
LeftToeBase 16.022617 -0.000000 -0.000000
RightUpLeg -1.776158 -21.096550 -54.604903
RightLeg 11.981780 -0.000000 -0.000000
RightFoot 45.967849 -1.077276 -14.690879
RightToeBase 19.187416 -0.000000 -0.000000
556
root 9.913304 36.723610 1.063100 186.908131 5.976467 -36.034120
Spine -18.845024 -5.177203 -23.775461
Head -91.775362 -5.384933 -5.294535
LeftShoulder -101.034327 -71.279586 147.482746
LeftArm 4.206901 -5.928864 -53.174436
LeftForeArm -16.523956 -0.000000 43.266943
LeftHand -46.528380 0.000000 112.312439
LeftHandThumb1 -26.253704 0.000000 33.147579
RightShoulder -104.135335 61.473948 -170.260485
RightArm -3.079896 -5.474490 43.237741
RightForeArm -47.110180 -0.000000 45.975188
RightHand -6.709191 -0.000000 -59.722462
RightHandThumb1 -24.326973 -0.000000 -32.862282
LeftUpLeg -2.845090 22.950910 67.117792
LeftLeg 8.150642 -0.000000 -0.000000
LeftFoot 20.073301 37.144184 -12.032566
LeftToeBase 16.838383 -0.000000 -0.000000
RightUpLeg -3.491722 -21.275246 -55.124071
RightLeg 12.238335 -0.000000 -0.000000
RightFoot 45.737366 -1.089122 -14.221601
RightToeBase 18.679308 -0.000000 -0.000000
557
root 9.513832 36.724193 1.173672 186.944164 7.883098 -34.297826
Spine -19.479712 -4.423655 -22.376785
Head -91.749239 -5.811092 -5.822234
LeftShoulder -114.763238 -68.861532 162.417445
LeftArm -1.389932 -2.686352 -53.257237
LeftForeArm -14.789632 -0.000000 44.276126
LeftHand -46.906156 -0.000000 112.856567
LeftHandThumb1 -26.253704 0.000000 33.147579
RightShoulder -103.674825 61.949570 -169.694084
RightArm -3.563044 -4.185955 43.619591
RightForeArm -47.469571 -0.000000 47.143890
RightHand -6.775152 -0.000000 -62.764666
RightHandThumb1 -24.326973 -0.000000 -32.862282
LeftUpLeg -0.475938 21.139636 65.410534
LeftLeg 6.693043 -0.000000 -0.000000
LeftFoot 22.752066 36.990562 -11.303072
LeftToeBase 16.969645 -0.000000 -0.000000
RightUpLeg -5.194969 -22.110877 -55.517222
RightLeg 12.243570 -0.000000 -0.000000
RightFoot 45.457024 -1.034882 -13.751787
RightToeBase 17.967028 -0.000000 -0.000000
